<?xml version='1.0' encoding='utf-8'?>
<!DOCTYPE svg PUBLIC '-//W3C//DTD SVG 1.1//EN' 'http://www.w3.org/Graphics/SVG/1.1/DTD/svg11.dtd'>
<!-- Uploaded to: SVG Repo, www.svgrepo.com, Generator: SVG Repo Mixer Tools -->
<svg fill="#000000" height="800px" width="800px" version="1.1" xmlns="http://www.w3.org/2000/svg" viewBox="0 0 512 512" xmlns:xlink="http://www.w3.org/1999/xlink" enable-background="new 0 0 512 512">
  <g>
    <g>
      <path d="M485.8,71.2L261.2,11.7c-3.4-0.9-7-0.9-10.5,0L26.2,71.2c-9,2.4-15.3,10.6-15.2,19.9c1.2,159.1,86.3,307.3,233.6,406.4    c3.4,2.3,7.4,3.5,11.4,3.5c4,0,8-1.2,11.4-3.5C414.7,398.4,499.8,250.3,501,91.1C501.1,81.8,494.8,73.6,485.8,71.2z M256,455.8    C131.9,367.9,58.5,242,52.3,106.6l203.7-54l203.7,54C453.5,242,380.1,367.9,256,455.8z"/>
      <path d="m191.9,165.4c0,11.3 9.1,20.4 20.4,20.4h22.2l-9.7,88c0,0.4-0.1,0.8-0.1,1.2v28c0,8 8.7,14.5 19.3,14.5h23.6c10.7,0 19.3-6.5 19.3-14.5v-28c0-0.4 0-0.8-0.1-1.2l-9.7-88h22.2c11.3,0 20.4-9.1 20.4-20.4 0-11.3-9.1-20.4-20.4-20.4h-87c-11.2,0-20.4,9.2-20.4,20.4z"/>
    </g>
  </g>
</svg>